<svg xmlns="http://www.w3.org/2000/svg" viewBox="0 0 110 110" id="deal"><g><circle cx="55" cy="55" r="50" fill="#e7efff"></circle><circle cx="10" cy="7" r="3" fill="#ff4d69"></circle><circle cx="106" cy="10" r="3" fill="#00c99f"></circle><circle cx="93" cy="106" r="3" fill="#ffa100"></circle><circle cx="4" cy="93" r="3" fill="#00c99f"></circle><path fill="#a5bced" d="M84.65,78.56c-10.5,6.52-9.69,6.07-10,6.07s1.12.31-20.85-5.32a.71.71,0,0,1-.3-1.22L76.86,57.22a.73.73,0,0,1,1.16.31L85,77.72A.7.7,0,0,1,84.65,78.56Z"></path><path fill="#7f96d1" d="M78.12,86.1a4.24,4.24,0,0,1-6.78,3.62h0a4,4,0,0,1-6.43,3.49l-.73-.55A3.89,3.89,0,0,1,58,96a3.94,3.94,0,0,1-6.17,3.53L21.45,78.35a.73.73,0,0,1-.26-.83l7.14-20a.7.7,0,0,1,.93-.42L36,60H47.29a2.05,2.05,0,0,1,1.26.44L76.55,83A4.2,4.2,0,0,1,78.12,86.1Z"></path><path fill="#a5bced" d="M80.79,68.32,70.41,72a12.41,12.41,0,0,1-16.28-.07l-2.27-2-6.2,2.82a8.17,8.17,0,0,1-7.72-.49A2.2,2.2,0,0,1,37.37,69c7.77-6.4,5.69-4.53,9.52-8.42a10.62,10.62,0,0,1,9.27-3l13.33,2.3,7.61-2.79a.7.7,0,0,1,.92.45l3.21,9.89A.71.71,0,0,1,80.79,68.32Z"></path><path fill="#323fd4" d="M33.47,58.76l-12,21.61a3,3,0,0,1-4.09,1.15l-7-3.93A50,50,0,0,1,6.53,42.71L32.11,54.59A3,3,0,0,1,33.47,58.76Z"></path><path fill="#4e6aff" d="M101.19,74.16,87.37,80.78a3,3,0,0,1-4-1.37L73.24,59.09A3,3,0,0,1,74.65,55L103.2,41.7A50,50,0,0,1,101.19,74.16Z"></path><circle cx="55" cy="30" r="19" fill="#ffa100"></circle><circle cx="71" cy="40" r="9" fill="#00c99f"></circle><path fill="#fff" d="M70 43c-.54 0-.57-.15-2.71-2.29a1 1 0 011.42-1.42L70 40.59l3.29-3.3a1 1 0 011.42 1.42l-4 4A1 1 0 0170 43zM55.5 28h-1a1.5 1.5 0 010-3H59a2 2 0 000-4H57V20a2 2 0 00-4 0v1.21A5.5 5.5 0 0054.5 32h1a1.5 1.5 0 010 3H51a2 2 0 000 4h2v1a2 2 0 004 0V38.79A5.5 5.5 0 0055.5 28z"></path><path fill="#ffa100" d="M34.45 13.89a8.12 8.12 0 00-4.35 5.69L30 20.2a1 1 0 01-2 0l-.12-.62a8.12 8.12 0 00-4.35-5.69 1 1 0 010-1.78A8.12 8.12 0 0027.9 6.42L28 5.8a1 1 0 012 0l.12.62a8.12 8.12 0 004.35 5.69A1 1 0 0134.45 13.89zM93.45 28.89a8.12 8.12 0 00-4.35 5.69L89 35.2a1 1 0 01-2 0l-.12-.62a8.12 8.12 0 00-4.35-5.69 1 1 0 010-1.78 8.12 8.12 0 004.35-5.69L87 20.8a1 1 0 012 0l.12.62a8.12 8.12 0 004.35 5.69A1 1 0 0193.45 28.89z"></path></g></svg>